<?xml version="1.0"?><svg xmlns="http://www.w3.org/2000/svg" xmlns:xlink="http://www.w3.org/1999/xlink" viewBox="0 0 498.6394958496094 113.43872833251953" style="overflow: visible; width: 100%; height: 100%; position: absolute; left: 0px; top: 0px; transition: 350ms ease-in-out; backface-visibility: hidden; opacity: 1; transform: translate3d(0px, 0px, 0px) rotate3d(1, 1, 0, 0deg);" width="3832.3353293413174px" height="16845.690926187748px"><g transform="translate(0 0)"><g transform="translate(0 0)"><g transform="translate(0 0)"><g transform="scale(0.48246153846153855 0.48246153846153855) translate(-2.9200000762939453 70.01000213623047)"><g transform="translate(0.000,0)" fill="#000000" stroke="#000000" stroke-width="0"><path d="M50.63,-44.53L25.19,-44.53L23.97,-44.76L22.94,-45.45L22.25,-46.48L22.02,-47.70L22.25,-48.92L22.94,-49.95L23.97,-50.68L25.19,-50.92L69.72,-50.92L69.72,-70.01L25.19,-70.01L24.17,-69.99L22.19,-69.83L20.27,-69.51L18.43,-69.02L16.64,-68.38L14.93,-67.57L13.29,-66.60L11.71,-65.47L10.20,-64.18L9.47,-63.47L8.76,-62.74L7.47,-61.22L6.34,-59.63L5.37,-57.98L4.56,-56.26L3.91,-54.47L3.43,-52.62L3.10,-50.70L2.94,-48.72L2.92,-47.70L2.94,-46.68L3.10,-44.70L3.43,-42.78L3.91,-40.94L4.56,-39.16L5.37,-37.44L6.34,-35.80L7.47,-34.22L8.76,-32.71L9.47,-31.98L10.20,-31.27L11.71,-29.98L13.29,-28.85L14.93,-27.88L16.64,-27.07L18.43,-26.42L20.27,-25.94L22.19,-25.61L24.17,-25.45L25.19,-25.43L50.63,-25.43L51.85,-25.20L52.88,-24.51L53.61,-23.48L53.85,-22.26L53.61,-21.04L52.88,-20.01L51.85,-19.32L50.63,-19.09L6.10,-19.09L6.10,0.00L50.63,0.00L51.65,-0.02L53.63,-0.18L55.55,-0.50L57.40,-0.99L59.19,-1.64L60.91,-2.44L62.56,-3.41L64.15,-4.54L65.67,-5.83L66.40,-6.54L67.11,-7.27L68.40,-8.78L69.53,-10.36L70.50,-12.00L71.31,-13.71L71.95,-15.50L72.44,-17.34L72.76,-19.26L72.92,-21.24L72.94,-22.26L72.92,-23.28L72.76,-25.26L72.44,-27.18L71.95,-29.03L71.31,-30.82L70.50,-32.54L69.53,-34.19L68.40,-35.78L67.11,-37.30L66.40,-38.03L65.67,-38.73L64.15,-40.02L62.56,-41.14L60.91,-42.10L59.19,-42.91L57.40,-43.55L55.55,-44.03L53.63,-44.35L51.65,-44.51Z   " class=""></path></g><g transform="translate(86.607,0)" fill="#000000" stroke="#000000" stroke-width="0"><path d="M2.92,-47.70L2.92,-22.26L2.94,-21.24L3.10,-19.26L3.43,-17.34L3.91,-15.50L4.56,-13.71L5.37,-12.00L6.34,-10.36L7.47,-8.78L8.76,-7.27L9.47,-6.54L10.20,-5.83L11.71,-4.54L13.29,-3.41L14.93,-2.44L16.64,-1.64L18.43,-0.99L20.27,-0.50L22.19,-0.18L24.17,-0.02L25.19,0.00L69.72,0.00L69.72,-19.09L28.36,-19.09L27.09,-19.21L24.85,-20.13L23.87,-20.94L23.06,-21.92L22.14,-24.16L22.02,-25.43L22.02,-44.53L22.14,-45.80L23.06,-48.04L23.87,-49.02L24.85,-49.85L27.09,-50.80L28.36,-50.92L69.72,-50.92L69.72,-70.01L25.19,-70.01L24.17,-69.99L22.19,-69.83L20.27,-69.51L18.43,-69.02L16.64,-68.38L14.93,-67.57L13.29,-66.60L11.71,-65.47L10.20,-64.18L9.47,-63.47L8.76,-62.74L7.47,-61.22L6.34,-59.63L5.37,-57.98L4.56,-56.26L3.91,-54.47L3.43,-52.62L3.10,-50.70L2.94,-48.72Z   " class=""></path></g><g transform="translate(169.309,0)" fill="#000000" stroke="#000000" stroke-width="0"><path d="M58.59,-70.01L33.34,-70.01L2.92,0.00L23.73,0.00L27.88,-9.52L60.20,-9.52L51.90,-28.61L36.18,-28.61L45.89,-50.92L46.09,-50.92L68.21,0.00L89.06,0.00Z   " class=""></path></g><g transform="translate(271.349,0)" fill="#000000" stroke="#000000" stroke-width="0"><path d="M92.04,-70.01L74.80,-70.01L63.28,-56.15L35.10,-22.16L47.46,-7.37L72.94,-37.89L72.94,0.00L92.04,0.00Z   M20.11,-70.01L2.92,-70.01L2.92,0.00L22.02,0.00L22.02,-37.89L33.05,-24.65L45.45,-39.59Z   " class=""></path></g><g transform="translate(377.057,0)" fill="#000000" stroke="#000000" stroke-width="0"><path d="M47.46,-70.01L2.92,-70.01L2.92,0.00L22.02,0.00L22.02,-50.92L45.89,-50.92L46.84,-50.83L48.52,-50.13L49.26,-49.51L49.86,-48.77L50.54,-47.08L50.63,-46.14L50.54,-45.18L49.86,-43.49L49.26,-42.77L48.52,-42.15L46.84,-41.44L45.89,-41.35L25.19,-41.35L25.19,-22.26L47.46,-22.26L48.48,-22.28L50.46,-22.44L52.38,-22.76L54.23,-23.25L56.01,-23.89L57.73,-24.70L59.39,-25.67L60.97,-26.80L62.49,-28.09L63.23,-28.80L63.93,-29.53L65.21,-31.04L66.33,-32.62L67.30,-34.27L68.10,-35.98L68.74,-37.76L69.22,-39.61L69.54,-41.53L69.70,-43.51L69.72,-44.53L69.72,-47.70L69.70,-48.72L69.54,-50.70L69.22,-52.62L68.74,-54.47L68.10,-56.26L67.30,-57.98L66.33,-59.63L65.21,-61.22L63.93,-62.74L63.23,-63.47L62.49,-64.18L60.97,-65.47L59.39,-66.60L57.73,-67.57L56.01,-68.38L54.23,-69.02L52.38,-69.51L50.46,-69.83L48.48,-69.99Z   " class=""></path></g><g transform="translate(460.446,0)" fill="#000000" stroke="#000000" stroke-width="0"><path d="M69.72,-70.01L2.92,-70.01L2.92,0.00L69.72,0.00L69.72,-19.09L22.02,-19.09L22.02,-50.92L69.72,-50.92Z   M25.19,-44.53L25.19,-25.43L60.20,-25.43L60.20,-44.53Z   " class=""></path></g><g transform="translate(543.835,0)" fill="#000000" stroke="#000000" stroke-width="0"><path d="M47.46,-70.01L2.92,-70.01L2.92,0.00L22.02,0.00L22.02,-50.92L44.28,-50.92L45.55,-50.80L47.80,-49.85L48.77,-49.02L49.58,-48.04L50.51,-45.80L50.63,-44.53L50.63,-25.43L50.51,-24.16L49.58,-21.92L48.77,-20.94L47.80,-20.13L45.55,-19.21L44.28,-19.09L25.19,-19.09L25.19,0.00L47.46,0.00L48.48,-0.02L50.46,-0.18L52.38,-0.50L54.23,-0.99L56.01,-1.64L57.73,-2.44L59.39,-3.41L60.97,-4.54L62.49,-5.83L63.23,-6.54L63.93,-7.27L65.21,-8.78L66.33,-10.36L67.30,-12.00L68.10,-13.71L68.74,-15.50L69.22,-17.34L69.54,-19.26L69.70,-21.24L69.72,-22.26L69.72,-47.70L69.70,-48.72L69.54,-50.70L69.22,-52.62L68.74,-54.47L68.10,-56.26L67.30,-57.98L66.33,-59.63L65.21,-61.22L63.93,-62.74L63.23,-63.47L62.49,-64.18L60.97,-65.47L59.39,-66.60L57.73,-67.57L56.01,-68.38L54.23,-69.02L52.38,-69.51L50.46,-69.83L48.48,-69.99Z   " class=""></path></g><g transform="translate(627.224,0)" fill="#000000" stroke="#000000" stroke-width="0"><path d="M2.92,-70.01L2.92,0.00L22.02,0.00L22.02,-70.01Z   " class=""></path></g><g transform="translate(662.225,0)" fill="#000000" stroke="#000000" stroke-width="0"><path d="M58.59,-70.01L33.34,-70.01L2.92,0.00L23.73,0.00L27.88,-9.52L60.20,-9.52L51.90,-28.61L36.18,-28.61L45.89,-50.92L46.09,-50.92L68.21,0.00L89.06,0.00Z   " class=""></path></g><g transform="translate(764.265,0)" fill="#000000" stroke="#000000" stroke-width="0"><path d="M2.92,-19.09L2.92,0.00L22.02,0.00L22.02,-19.09Z   " fill="#0000ff" class=""></path></g><g transform="translate(799.954,0)" fill="#000000" stroke="#000000" stroke-width="0"><path d="M69.72,-70.01L50.63,-70.01L50.63,-37.64L69.72,-14.06Z   M20.21,-70.01L2.92,-70.01L2.92,-60.98L22.02,-37.45L22.02,-37.50L52.49,0.00L69.72,0.00L69.72,-9.03L50.63,-32.56L50.63,-32.51Z   M2.92,-55.95L2.92,0.00L22.02,0.00L22.02,-32.37Z   " fill="#0000ff" class=""></path></g><g transform="translate(883.343,0)" fill="#000000" stroke="#000000" stroke-width="0"><path d="M69.72,-70.01L2.92,-70.01L2.92,0.00L69.72,0.00L69.72,-19.09L22.02,-19.09L22.02,-50.92L69.72,-50.92Z   M25.19,-44.53L25.19,-25.43L60.20,-25.43L60.20,-44.53Z   " fill="#0000ff" class=""></path></g><g transform="translate(966.732,0)" fill="#000000" stroke="#000000" stroke-width="0"><path d="M69.72,-70.01L2.92,-70.01L2.92,-50.92L69.72,-50.92Z   M26.80,-47.70L26.80,0.00L45.89,0.00L45.89,-47.70Z   " fill="#0000ff" class=""></path></g></g></g><g transform="translate(0 46.27190256911058)"><g transform="scale(0.4967960475417501 0.4967960475417501) translate(-4.199999809265137 116.40000152587889)"><g transform="translate(0.000,0)" fill="#000000" stroke="#000000" stroke-width="0"><path d="M29.30,-28.60L21.60,-28.60L21.60,-10.60L21.62,-9.39L21.80,-7.32L22.16,-5.72L22.40,-5.10L22.87,-4.32L24.27,-3.17L25.20,-2.80L25.94,-2.61L27.82,-2.30L30.27,-2.08L31.70,-2.00L31.70,0.00L30.94,-0.04L29.27,-0.11L27.44,-0.18L25.42,-0.22L23.24,-0.26L20.87,-0.29L18.34,-0.30L17.00,-0.30L15.60,-0.30L12.97,-0.28L10.60,-0.25L8.46,-0.20L6.58,-0.13L4.93,-0.05L4.20,0.00L4.20,-2.00L5.35,-2.08L7.31,-2.30L8.85,-2.61L9.45,-2.80L10.21,-3.17L11.33,-4.32L11.70,-5.10L11.88,-5.72L12.15,-7.32L12.28,-9.39L12.30,-10.60L12.30,-60.20L12.28,-61.41L12.15,-63.47L11.88,-65.08L11.70,-65.70L11.33,-66.48L10.21,-67.63L9.45,-68.00L8.85,-68.19L7.31,-68.50L5.35,-68.72L4.20,-68.80L4.20,-70.80L4.93,-70.75L6.54,-70.67L8.36,-70.60L10.39,-70.55L12.64,-70.52L15.09,-70.50L16.40,-70.50L27.20,-70.60L28.18,-70.64L30.33,-70.69L31.50,-70.70L32.78,-70.68L35.25,-70.55L37.58,-70.29L39.77,-69.89L41.83,-69.36L43.75,-68.70L45.53,-67.91L47.18,-66.98L48.69,-65.93L49.40,-65.35L50.15,-64.67L51.51,-63.22L52.67,-61.65L53.64,-59.97L54.41,-58.18L54.99,-56.27L55.38,-54.25L55.58,-52.11L55.60,-51.00L55.58,-49.90L55.38,-47.74L54.99,-45.61L54.40,-43.52L53.62,-41.46L53.15,-40.45L52.72,-39.62L51.71,-38.03L50.52,-36.53L49.13,-35.12L47.56,-33.80L45.80,-32.58L44.85,-32.00L44.10,-31.59L42.52,-30.84L40.82,-30.21L38.99,-29.68L37.05,-29.25L34.99,-28.93L32.80,-28.72L30.50,-28.61Z   M29.00,-68.80L27.55,-68.76L25.22,-68.41L24.35,-68.10L23.63,-67.68L22.56,-66.43L22.20,-65.60L22.02,-64.95L21.75,-63.35L21.62,-61.35L21.60,-60.20L21.60,-30.60L28.30,-30.60L29.67,-30.63L32.22,-30.84L34.53,-31.27L36.59,-31.91L38.40,-32.77L39.97,-33.84L41.28,-35.13L41.85,-35.85L42.37,-36.62L43.28,-38.26L44.05,-40.05L44.66,-41.99L45.12,-44.07L45.43,-46.29L45.58,-48.66L45.60,-49.90L45.58,-51.26L45.42,-53.82L45.11,-56.18L44.64,-58.32L44.01,-60.26L43.22,-61.99L42.28,-63.52L41.75,-64.20L41.17,-64.83L39.87,-65.96L38.36,-66.90L36.64,-67.65L34.71,-68.21L32.58,-68.59L30.25,-68.78Z   " class=""></path></g><g transform="translate(50.140,0)" fill="#000000" stroke="#000000" stroke-width="0"><path d="M27.40,-52.90L28.52,-52.88L30.69,-52.71L32.76,-52.38L34.74,-51.88L36.61,-51.21L38.39,-50.38L40.07,-49.38L41.66,-48.21L43.14,-46.88L43.85,-46.15L44.41,-45.52L45.44,-44.18L46.37,-42.72L47.19,-41.15L47.92,-39.46L48.54,-37.66L49.05,-35.75L49.47,-33.71L49.78,-31.57L49.98,-29.31L50.09,-26.93L50.10,-25.70L50.09,-24.47L49.98,-22.09L49.78,-19.83L49.47,-17.69L49.05,-15.66L48.54,-13.75L47.92,-11.95L47.19,-10.27L46.37,-8.71L45.44,-7.26L44.41,-5.92L43.85,-5.30L43.14,-4.58L41.66,-3.25L40.07,-2.09L38.39,-1.10L36.61,-0.28L34.74,0.39L32.76,0.88L30.69,1.21L28.52,1.38L27.40,1.40L26.28,1.38L24.11,1.21L22.04,0.88L20.06,0.39L18.19,-0.28L16.41,-1.10L14.73,-2.09L13.14,-3.25L11.66,-4.58L10.95,-5.30L10.39,-5.92L9.36,-7.26L8.43,-8.71L7.61,-10.27L6.88,-11.95L6.26,-13.75L5.75,-15.66L5.33,-17.69L5.02,-19.83L4.82,-22.09L4.71,-24.47L4.70,-25.70L4.71,-26.93L4.82,-29.31L5.02,-31.57L5.33,-33.71L5.75,-35.75L6.26,-37.66L6.88,-39.46L7.61,-41.15L8.43,-42.72L9.36,-44.18L10.39,-45.52L10.95,-46.15L11.66,-46.88L13.14,-48.21L14.73,-49.38L16.41,-50.38L18.19,-51.21L20.06,-51.88L22.04,-52.38L24.11,-52.71L26.28,-52.88Z   M27.40,-50.90L26.42,-50.86L24.56,-50.52L22.83,-49.83L21.25,-48.81L19.81,-47.44L18.50,-45.73L17.90,-44.75L17.56,-44.12L16.93,-42.75L16.37,-41.25L15.88,-39.62L15.46,-37.85L15.11,-35.94L14.83,-33.90L14.62,-31.73L14.48,-29.42L14.41,-26.97L14.40,-25.70L14.41,-24.43L14.48,-21.98L14.62,-19.68L14.83,-17.50L15.11,-15.47L15.46,-13.57L15.88,-11.80L16.37,-10.18L16.93,-8.68L17.56,-7.33L17.90,-6.70L18.50,-5.73L19.81,-4.03L21.25,-2.68L22.83,-1.66L24.56,-0.98L26.42,-0.64L27.40,-0.60L28.38,-0.64L30.24,-0.98L31.97,-1.66L33.55,-2.68L34.99,-4.03L36.30,-5.73L36.90,-6.70L37.24,-7.33L37.87,-8.68L38.43,-10.18L38.92,-11.80L39.34,-13.57L39.69,-15.47L39.97,-17.50L40.18,-19.67L40.32,-21.98L40.39,-24.43L40.40,-25.70L40.39,-26.97L40.32,-29.42L40.18,-31.73L39.97,-33.90L39.69,-35.94L39.34,-37.85L38.92,-39.62L38.43,-41.25L37.87,-42.75L37.24,-44.12L36.90,-44.75L36.30,-45.73L34.99,-47.44L33.55,-48.81L31.97,-49.83L30.24,-50.52L28.38,-50.86Z   " class=""></path></g><g transform="translate(95.631,0)" fill="#000000" stroke="#000000" stroke-width="0"><path d="M69.10,-51.20L70.18,-51.20L72.23,-51.24L74.13,-51.32L75.88,-51.43L76.70,-51.50L76.70,-49.50L75.68,-49.27L73.83,-48.35L73.00,-47.65L72.48,-47.08L71.50,-45.59L70.61,-43.64L70.20,-42.50L55.70,0.50L54.00,0.50L38.20,-39.70L23.90,0.50L22.20,0.50L5.80,-43.80L5.33,-44.90L4.39,-46.69L3.43,-47.93L2.95,-48.35L2.22,-48.81L0.75,-49.33L0.00,-49.40L0.00,-51.50L0.99,-51.36L3.07,-51.13L5.27,-50.98L7.59,-50.91L8.80,-50.90L9.53,-50.90L11.08,-50.93L12.75,-50.98L14.55,-51.05L16.47,-51.15L18.51,-51.27L20.67,-51.42L21.80,-51.50L21.80,-49.40L20.62,-49.38L18.61,-49.25L17.06,-48.98L16.45,-48.80L15.73,-48.38L14.90,-46.83L14.80,-45.70L14.86,-44.73L15.36,-42.38L15.80,-41.00L25.80,-12.20L40.20,-51.90L42.50,-51.90L57.80,-11.50L67.20,-40.10L67.59,-41.39L68.04,-43.64L68.10,-44.60L67.99,-45.72L67.14,-47.47L66.40,-48.10L65.77,-48.44L64.13,-49.00L61.97,-49.38L60.70,-49.50L60.70,-51.50L61.99,-51.43L64.37,-51.32L66.47,-51.24L68.29,-51.20Z   " class=""></path></g><g transform="translate(162.560,0)" fill="#000000" stroke="#000000" stroke-width="0"><path d="M44.30,-12.80L46.30,-12.00L45.98,-11.09L45.20,-9.35L44.25,-7.69L43.13,-6.11L41.83,-4.62L40.35,-3.22L39.55,-2.55L38.71,-1.92L36.95,-0.82L35.07,0.06L33.08,0.71L30.97,1.15L28.75,1.37L27.60,1.40L26.43,1.38L24.17,1.20L22.01,0.84L19.96,0.29L18.02,-0.43L16.18,-1.33L15.30,-1.85L14.45,-2.41L12.85,-3.64L11.39,-5.01L10.07,-6.53L8.88,-8.19L7.83,-9.99L7.35,-10.95L6.97,-11.80L6.30,-13.54L5.74,-15.36L5.29,-17.26L4.95,-19.24L4.73,-21.28L4.61,-23.41L4.60,-24.50L4.61,-25.58L4.70,-27.68L4.87,-29.71L5.14,-31.67L5.49,-33.56L5.92,-35.38L6.45,-37.12L7.06,-38.79L7.40,-39.60L7.88,-40.65L8.94,-42.62L10.13,-44.42L11.45,-46.06L12.89,-47.54L14.47,-48.85L15.30,-49.45L16.16,-50.00L17.96,-50.96L19.85,-51.73L21.83,-52.30L23.91,-52.68L26.08,-52.88L27.20,-52.90L28.46,-52.87L30.87,-52.65L33.10,-52.20L35.16,-51.54L37.06,-50.65L38.78,-49.54L40.34,-48.20L41.05,-47.45L41.57,-46.83L42.53,-45.48L43.37,-43.99L44.09,-42.36L44.69,-40.59L45.17,-38.68L45.53,-36.63L45.77,-34.44L45.89,-32.12L45.90,-30.90L14.60,-30.90L14.51,-29.94L14.38,-27.90L14.31,-25.68L14.30,-24.50L14.31,-23.41L14.43,-21.31L14.67,-19.30L15.03,-17.38L15.51,-15.56L16.11,-13.83L16.45,-13.00L16.89,-12.04L17.87,-10.26L18.95,-8.66L20.15,-7.24L21.45,-6.00L22.15,-5.45L23.04,-4.83L24.86,-3.84L26.72,-3.17L28.63,-2.84L29.60,-2.80L30.78,-2.84L33.05,-3.12L35.17,-3.70L37.16,-4.56L38.10,-5.10L38.83,-5.59L40.21,-6.76L41.50,-8.18L42.69,-9.84L43.79,-11.75Z   M26.80,-51.00L25.87,-50.95L24.10,-50.59L22.43,-49.85L20.86,-48.75L19.39,-47.27L18.70,-46.40L18.23,-45.72L17.36,-44.23L16.60,-42.55L15.95,-40.70L15.40,-38.67L14.96,-36.46L14.63,-34.06L14.50,-32.80L36.30,-32.80L36.32,-33.90L36.26,-36.02L36.10,-38.04L35.84,-39.95L35.46,-41.75L34.98,-43.45L34.39,-45.04L34.05,-45.80L33.40,-47.02L31.88,-48.97L30.07,-50.27L27.96,-50.92Z   " class=""></path></g><g transform="translate(203.733,0)" fill="#000000" stroke="#000000" stroke-width="0"><path d="M34.00,-52.90L35.29,-52.84L37.64,-52.32L39.66,-51.30L40.55,-50.60L41.33,-49.81L42.46,-48.05L43.03,-46.07L43.10,-45.00L43.00,-43.75L42.23,-41.52L41.55,-40.55L40.71,-39.74L38.63,-38.82L37.40,-38.70L36.34,-38.79L34.47,-39.49L33.65,-40.10L32.97,-40.86L32.20,-42.76L32.10,-43.90L32.19,-44.97L32.95,-46.90L34.46,-48.57L35.50,-49.30L34.63,-50.05L33.40,-50.30L32.44,-50.25L30.57,-49.87L28.80,-49.11L27.11,-47.96L26.30,-47.25L25.52,-46.47L24.10,-44.77L22.85,-42.91L21.77,-40.88L21.30,-39.80L20.88,-38.71L20.20,-36.57L19.75,-34.50L19.53,-32.48L19.50,-31.50L19.50,-10.30L19.57,-8.84L20.16,-6.40L21.34,-4.58L22.15,-3.90L22.85,-3.48L24.51,-2.80L26.50,-2.35L28.82,-2.13L30.10,-2.10L30.10,0.00L27.70,-0.10L26.28,-0.14L23.67,-0.21L21.36,-0.28L19.35,-0.32L17.64,-0.36L16.24,-0.39L15.14,-0.40L14.70,-0.40L14.22,-0.40L12.99,-0.38L11.39,-0.33L9.42,-0.26L7.09,-0.18L4.39,-0.06L2.90,0.00L2.90,-2.10L4.23,-2.14L6.47,-2.49L8.16,-3.18L8.80,-3.65L9.32,-4.24L10.07,-5.84L10.45,-8.00L10.50,-9.30L10.50,-40.60L10.45,-42.06L10.07,-44.58L9.32,-46.53L8.80,-47.30L8.16,-47.94L6.47,-48.88L4.23,-49.34L2.90,-49.40L2.90,-51.50L3.96,-51.41L6.05,-51.28L8.09,-51.21L9.10,-51.20L10.34,-51.21L12.68,-51.33L14.85,-51.55L16.84,-51.89L18.66,-52.33L19.50,-52.60L19.50,-40.10L19.88,-41.09L20.77,-43.00L21.84,-44.83L23.07,-46.56L24.48,-48.21L25.25,-49.00L26.05,-49.74L27.70,-50.99L29.41,-51.93L31.20,-52.55L33.05,-52.86Z   " class=""></path></g><g transform="translate(241.981,0)" fill="#000000" stroke="#000000" stroke-width="0"><path d="M44.30,-12.80L46.30,-12.00L45.98,-11.09L45.20,-9.35L44.25,-7.69L43.13,-6.11L41.83,-4.62L40.35,-3.22L39.55,-2.55L38.71,-1.92L36.95,-0.82L35.07,0.06L33.08,0.71L30.97,1.15L28.75,1.37L27.60,1.40L26.43,1.38L24.17,1.20L22.01,0.84L19.96,0.29L18.02,-0.43L16.18,-1.33L15.30,-1.85L14.45,-2.41L12.85,-3.64L11.39,-5.01L10.07,-6.53L8.88,-8.19L7.83,-9.99L7.35,-10.95L6.97,-11.80L6.30,-13.54L5.74,-15.36L5.29,-17.26L4.95,-19.24L4.73,-21.28L4.61,-23.41L4.60,-24.50L4.61,-25.58L4.70,-27.68L4.87,-29.71L5.14,-31.67L5.49,-33.56L5.92,-35.38L6.45,-37.12L7.06,-38.79L7.40,-39.60L7.88,-40.65L8.94,-42.62L10.13,-44.42L11.45,-46.06L12.89,-47.54L14.47,-48.85L15.30,-49.45L16.16,-50.00L17.96,-50.96L19.85,-51.73L21.83,-52.30L23.91,-52.68L26.08,-52.88L27.20,-52.90L28.46,-52.87L30.87,-52.65L33.10,-52.20L35.16,-51.54L37.06,-50.65L38.78,-49.54L40.34,-48.20L41.05,-47.45L41.57,-46.83L42.53,-45.48L43.37,-43.99L44.09,-42.36L44.69,-40.59L45.17,-38.68L45.53,-36.63L45.77,-34.44L45.89,-32.12L45.90,-30.90L14.60,-30.90L14.51,-29.94L14.38,-27.90L14.31,-25.68L14.30,-24.50L14.31,-23.41L14.43,-21.31L14.67,-19.30L15.03,-17.38L15.51,-15.56L16.11,-13.83L16.45,-13.00L16.89,-12.04L17.87,-10.26L18.95,-8.66L20.15,-7.24L21.45,-6.00L22.15,-5.45L23.04,-4.83L24.86,-3.84L26.72,-3.17L28.63,-2.84L29.60,-2.80L30.78,-2.84L33.05,-3.12L35.17,-3.70L37.16,-4.56L38.10,-5.10L38.83,-5.59L40.21,-6.76L41.50,-8.18L42.69,-9.84L43.79,-11.75Z   M26.80,-51.00L25.87,-50.95L24.10,-50.59L22.43,-49.85L20.86,-48.75L19.39,-47.27L18.70,-46.40L18.23,-45.72L17.36,-44.23L16.60,-42.55L15.95,-40.70L15.40,-38.67L14.96,-36.46L14.63,-34.06L14.50,-32.80L36.30,-32.80L36.32,-33.90L36.26,-36.02L36.10,-38.04L35.84,-39.95L35.46,-41.75L34.98,-43.45L34.39,-45.04L34.05,-45.80L33.40,-47.02L31.88,-48.97L30.07,-50.27L27.96,-50.92Z   " class=""></path></g><g transform="translate(286.708,0)" fill="#000000" stroke="#000000" stroke-width="0"><path d="M48.40,-10.90L48.45,-9.44L48.82,-6.92L49.58,-4.97L50.10,-4.20L50.74,-3.56L52.42,-2.63L54.67,-2.16L56.00,-2.10L56.00,0.00L54.97,-0.09L52.90,-0.22L50.83,-0.29L49.80,-0.30L48.56,-0.29L46.22,-0.17L44.05,0.05L42.06,0.39L40.24,0.83L39.40,1.10L39.40,-7.80L38.92,-6.71L37.80,-4.73L36.45,-3.01L34.87,-1.57L34.00,-0.95L33.26,-0.50L31.70,0.25L30.00,0.81L28.18,1.19L26.22,1.38L25.20,1.40L24.02,1.37L21.75,1.16L19.61,0.73L17.59,0.08L15.71,-0.78L13.96,-1.86L12.34,-3.16L10.85,-4.66L10.15,-5.50L9.62,-6.21L8.64,-7.71L7.77,-9.35L7.01,-11.11L6.37,-13.01L5.83,-15.03L5.41,-17.17L5.10,-19.45L4.89,-21.85L4.80,-24.39L4.80,-25.70L4.81,-26.78L4.91,-28.87L5.10,-30.89L5.38,-32.82L5.77,-34.68L6.24,-36.46L6.81,-38.15L7.48,-39.77L7.85,-40.55L8.37,-41.55L9.51,-43.43L10.76,-45.15L12.12,-46.69L13.61,-48.06L15.21,-49.26L16.05,-49.80L16.92,-50.30L18.69,-51.16L20.52,-51.85L22.42,-52.36L24.37,-52.71L26.37,-52.88L27.40,-52.90L28.34,-52.88L30.16,-52.70L31.90,-52.33L33.55,-51.79L34.35,-51.45L35.37,-50.92L37.19,-49.61L38.73,-47.96L39.40,-47.00L39.40,-66.40L39.35,-67.86L38.97,-70.38L38.22,-72.33L37.70,-73.10L37.06,-73.74L35.38,-74.67L33.13,-75.14L31.80,-75.20L31.80,-77.30L32.86,-77.21L34.95,-77.08L36.99,-77.01L38.00,-77.00L39.24,-77.01L41.58,-77.13L43.75,-77.35L45.74,-77.69L47.56,-78.13L48.40,-78.40Z   M28.10,-1.60L29.06,-1.65L30.91,-2.02L32.66,-2.77L34.31,-3.90L35.10,-4.60L35.70,-5.23L36.79,-6.63L37.73,-8.22L38.51,-10.03L39.14,-12.03L39.40,-13.10L39.40,-42.90L38.98,-43.96L37.98,-45.85L36.73,-47.42L35.25,-48.67L33.53,-49.62L31.58,-50.25L29.38,-50.56L28.20,-50.60L27.18,-50.56L25.25,-50.20L23.45,-49.50L21.78,-48.44L20.25,-47.03L18.85,-45.26L18.20,-44.25L17.79,-43.53L17.04,-41.97L16.39,-40.27L15.83,-38.43L15.38,-36.44L15.01,-34.30L14.75,-32.03L14.58,-29.60L14.50,-27.04L14.50,-25.70L14.50,-24.39L14.57,-21.87L14.72,-19.49L14.97,-17.27L15.30,-15.19L15.72,-13.26L16.23,-11.47L16.83,-9.83L17.52,-8.34L17.90,-7.65L18.51,-6.68L19.85,-5.00L21.37,-3.66L23.07,-2.65L24.95,-1.98L27.01,-1.64Z   " class=""></path></g><g transform="translate(348.728,0)" fill="#000000" stroke="#000000" stroke-width="0"><path d="" class=""></path></g><g transform="translate(377.548,0)" fill="#000000" stroke="#000000" stroke-width="0"><path d="M32.60,-52.90L33.65,-52.87L35.67,-52.65L37.60,-52.22L39.42,-51.56L41.13,-50.69L42.75,-49.59L44.27,-48.28L45.68,-46.75L46.35,-45.90L46.86,-45.18L47.81,-43.66L48.65,-42.01L49.38,-40.24L50.01,-38.34L50.54,-36.32L50.96,-34.18L51.27,-31.91L51.48,-29.52L51.59,-27.00L51.60,-25.70L51.59,-24.62L51.49,-22.53L51.31,-20.52L51.03,-18.59L50.65,-16.74L50.18,-14.97L49.62,-13.28L48.96,-11.67L48.60,-10.90L48.09,-9.90L46.97,-8.04L45.74,-6.34L44.40,-4.80L42.95,-3.44L41.38,-2.24L40.55,-1.70L39.70,-1.20L37.95,-0.34L36.14,0.35L34.27,0.86L32.33,1.21L30.33,1.38L29.30,1.40L28.38,1.38L26.56,1.19L24.77,0.81L23.02,0.25L22.15,-0.10L21.30,-0.50L19.68,-1.41L18.17,-2.48L16.76,-3.72L16.10,-4.40L9.00,1.60L7.30,0.90L7.51,0.04L7.83,-1.80L7.98,-3.82L8.00,-4.90L8.00,-66.30L7.95,-67.76L7.58,-70.28L6.82,-72.23L6.30,-73.00L5.66,-73.64L3.98,-74.57L1.73,-75.04L0.40,-75.10L0.40,-77.20L1.46,-77.11L3.55,-76.97L5.59,-76.91L6.60,-76.90L7.84,-76.91L10.18,-77.03L12.35,-77.25L14.34,-77.59L16.16,-78.03L17.00,-78.30L17.00,-42.20L17.46,-43.20L18.50,-45.05L19.69,-46.73L21.04,-48.21L22.54,-49.52L23.35,-50.10L24.19,-50.63L25.93,-51.53L27.74,-52.20L29.63,-52.65L31.59,-52.87Z   M28.50,-0.90L29.59,-0.94L31.64,-1.28L33.50,-1.95L35.18,-2.96L36.67,-4.30L37.97,-5.98L38.55,-6.95L38.88,-7.57L39.48,-8.91L40.02,-10.39L40.48,-12.00L40.89,-13.74L41.22,-15.62L41.49,-17.62L41.69,-19.77L41.82,-22.04L41.89,-24.45L41.90,-25.70L41.89,-27.04L41.82,-29.59L41.67,-32.00L41.45,-34.25L41.15,-36.35L40.78,-38.30L40.34,-40.09L39.82,-41.73L39.22,-43.21L38.90,-43.90L38.27,-45.04L36.81,-46.96L35.10,-48.40L33.13,-49.36L30.91,-49.84L29.70,-49.90L28.66,-49.85L26.65,-49.44L24.72,-48.63L22.89,-47.41L22.00,-46.65L21.32,-45.97L20.08,-44.46L19.00,-42.74L18.08,-40.80L17.32,-38.65L17.00,-37.50L17.00,-5.80L17.79,-5.03L19.48,-3.69L21.32,-2.60L22.30,-2.15L23.31,-1.77L25.35,-1.21L27.44,-0.93Z   " class=""></path></g><g transform="translate(425.809,0)" fill="#000000" stroke="#000000" stroke-width="0"><path d="M41.80,-51.20L42.88,-51.20L44.93,-51.24L46.83,-51.32L48.58,-51.43L49.40,-51.50L49.40,-49.50L48.43,-49.31L46.65,-48.41L45.85,-47.70L45.34,-47.11L44.34,-45.60L43.37,-43.64L42.90,-42.50L26.50,0.50L23.10,9.20L22.62,10.38L21.60,12.48L20.53,14.23L19.39,15.63L18.80,16.20L18.01,16.85L16.21,17.85L15.20,18.20L14.15,18.46L12.05,18.76L11.00,18.80L10.03,18.76L8.28,18.40L6.76,17.69L6.10,17.20L5.27,16.32L4.32,14.13L4.20,12.80L4.29,11.66L4.99,9.73L5.60,8.95L6.37,8.32L8.32,7.59L9.50,7.50L10.55,7.58L12.38,8.20L13.15,8.75L13.78,9.43L14.51,11.16L14.60,12.20L14.53,13.16L13.92,14.82L12.73,16.16L11.90,16.70L12.50,16.80L13.40,16.75L15.09,16.31L16.65,15.45L18.07,14.15L19.34,12.41L20.48,10.25L21.00,9.00L24.50,-0.10L6.40,-43.80L5.83,-44.87L4.70,-46.63L3.57,-47.87L3.00,-48.30L2.15,-48.78L0.45,-49.33L-0.40,-49.40L-0.40,-51.50L0.47,-51.39L2.29,-51.19L4.20,-51.05L6.21,-50.95L8.31,-50.91L9.40,-50.90L10.13,-50.90L11.68,-50.93L13.35,-50.98L15.15,-51.05L17.07,-51.15L19.11,-51.27L21.27,-51.42L22.40,-51.50L22.40,-49.40L21.25,-49.38L19.29,-49.25L17.75,-48.98L17.15,-48.80L16.43,-48.39L15.60,-46.94L15.50,-45.90L15.53,-45.18L15.80,-43.63L16.33,-41.91L16.70,-41.00L28.70,-11.20L39.80,-40.10L40.28,-41.51L40.83,-43.81L40.90,-44.70L40.79,-45.78L39.89,-47.48L39.10,-48.10L38.44,-48.44L36.77,-49.00L34.64,-49.38L33.40,-49.50L33.40,-51.50L34.69,-51.43L37.07,-51.32L39.17,-51.24L40.99,-51.20Z   " class=""></path></g><g transform="translate(480.129,0)" fill="#000000" stroke="#000000" stroke-width="0"><path d="" class=""></path></g><g transform="translate(508.949,0)" fill="#000000" stroke="#000000" stroke-width="0"><path d="M56.20,-70.50L57.30,-70.50L59.36,-70.54L61.24,-70.62L62.93,-70.73L63.70,-70.80L63.70,-68.80L62.88,-68.56L61.33,-67.81L59.90,-66.71L58.58,-65.26L57.38,-63.46L56.30,-61.31L55.80,-60.10L32.30,0.50L31.50,0.50L30.70,0.50L6.30,-62.40L5.80,-63.58L4.67,-65.58L3.38,-67.10L1.91,-68.14L0.28,-68.70L-0.60,-68.80L-0.60,-70.80L0.23,-70.74L2.04,-70.65L4.08,-70.58L6.32,-70.53L8.79,-70.50L10.10,-70.50L11.50,-70.50L14.12,-70.52L16.50,-70.55L18.64,-70.60L20.52,-70.67L22.17,-70.75L22.90,-70.80L22.90,-68.80L21.69,-68.72L19.64,-68.46L18.06,-68.08L17.45,-67.85L16.73,-67.40L15.90,-66.02L15.80,-65.10L15.88,-64.17L16.48,-61.82L17.00,-60.40L35.10,-12.30L51.40,-54.60L51.87,-55.91L52.62,-58.28L53.12,-60.33L53.37,-62.06L53.40,-62.80L53.27,-64.24L52.19,-66.49L51.25,-67.30L50.47,-67.73L48.54,-68.38L46.10,-68.73L44.70,-68.80L44.70,-70.80L45.65,-70.75L47.56,-70.67L49.47,-70.60L51.38,-70.55L53.31,-70.52L55.23,-70.50Z   " class=""></path></g><g transform="translate(553.629,0)" fill="#000000" stroke="#000000" stroke-width="0"><path d="M44.30,-12.80L46.30,-12.00L45.98,-11.09L45.20,-9.35L44.25,-7.69L43.13,-6.11L41.83,-4.62L40.35,-3.22L39.55,-2.55L38.71,-1.92L36.95,-0.82L35.07,0.06L33.08,0.71L30.97,1.15L28.75,1.37L27.60,1.40L26.43,1.38L24.17,1.20L22.01,0.84L19.96,0.29L18.02,-0.43L16.18,-1.33L15.30,-1.85L14.45,-2.41L12.85,-3.64L11.39,-5.01L10.07,-6.53L8.88,-8.19L7.83,-9.99L7.35,-10.95L6.97,-11.80L6.30,-13.54L5.74,-15.36L5.29,-17.26L4.95,-19.24L4.73,-21.28L4.61,-23.41L4.60,-24.50L4.61,-25.58L4.70,-27.68L4.87,-29.71L5.14,-31.67L5.49,-33.56L5.92,-35.38L6.45,-37.12L7.06,-38.79L7.40,-39.60L7.88,-40.65L8.94,-42.62L10.13,-44.42L11.45,-46.06L12.89,-47.54L14.47,-48.85L15.30,-49.45L16.16,-50.00L17.96,-50.96L19.85,-51.73L21.83,-52.30L23.91,-52.68L26.08,-52.88L27.20,-52.90L28.46,-52.87L30.87,-52.65L33.10,-52.20L35.16,-51.54L37.06,-50.65L38.78,-49.54L40.34,-48.20L41.05,-47.45L41.57,-46.83L42.53,-45.48L43.37,-43.99L44.09,-42.36L44.69,-40.59L45.17,-38.68L45.53,-36.63L45.77,-34.44L45.89,-32.12L45.90,-30.90L14.60,-30.90L14.51,-29.94L14.38,-27.90L14.31,-25.68L14.30,-24.50L14.31,-23.41L14.43,-21.31L14.67,-19.30L15.03,-17.38L15.51,-15.56L16.11,-13.83L16.45,-13.00L16.89,-12.04L17.87,-10.26L18.95,-8.66L20.15,-7.24L21.45,-6.00L22.15,-5.45L23.04,-4.83L24.86,-3.84L26.72,-3.17L28.63,-2.84L29.60,-2.80L30.78,-2.84L33.05,-3.12L35.17,-3.70L37.16,-4.56L38.10,-5.10L38.83,-5.59L40.21,-6.76L41.50,-8.18L42.69,-9.84L43.79,-11.75Z   M26.80,-51.00L25.87,-50.95L24.10,-50.59L22.43,-49.85L20.86,-48.75L19.39,-47.27L18.70,-46.40L18.23,-45.72L17.36,-44.23L16.60,-42.55L15.95,-40.70L15.40,-38.67L14.96,-36.46L14.63,-34.06L14.50,-32.80L36.30,-32.80L36.32,-33.90L36.26,-36.02L36.10,-38.04L35.84,-39.95L35.46,-41.75L34.98,-43.45L34.39,-45.04L34.05,-45.80L33.40,-47.02L31.88,-48.97L30.07,-50.27L27.96,-50.92Z   " class=""></path></g><g transform="translate(594.801,0)" fill="#000000" stroke="#000000" stroke-width="0"><path d="M34.00,-52.90L35.29,-52.84L37.64,-52.32L39.66,-51.30L40.55,-50.60L41.33,-49.81L42.46,-48.05L43.03,-46.07L43.10,-45.00L43.00,-43.75L42.23,-41.52L41.55,-40.55L40.71,-39.74L38.63,-38.82L37.40,-38.70L36.34,-38.79L34.47,-39.49L33.65,-40.10L32.97,-40.86L32.20,-42.76L32.10,-43.90L32.19,-44.97L32.95,-46.90L34.46,-48.57L35.50,-49.30L34.63,-50.05L33.40,-50.30L32.44,-50.25L30.57,-49.87L28.80,-49.11L27.11,-47.96L26.30,-47.25L25.52,-46.47L24.10,-44.77L22.85,-42.91L21.77,-40.88L21.30,-39.80L20.88,-38.71L20.20,-36.57L19.75,-34.50L19.53,-32.48L19.50,-31.50L19.50,-10.30L19.57,-8.84L20.16,-6.40L21.34,-4.58L22.15,-3.90L22.85,-3.48L24.51,-2.80L26.50,-2.35L28.82,-2.13L30.10,-2.10L30.10,0.00L27.70,-0.10L26.28,-0.14L23.67,-0.21L21.36,-0.28L19.35,-0.32L17.64,-0.36L16.24,-0.39L15.14,-0.40L14.70,-0.40L14.22,-0.40L12.99,-0.38L11.39,-0.33L9.42,-0.26L7.09,-0.18L4.39,-0.06L2.90,0.00L2.90,-2.10L4.23,-2.14L6.47,-2.49L8.16,-3.18L8.80,-3.65L9.32,-4.24L10.07,-5.84L10.45,-8.00L10.50,-9.30L10.50,-40.60L10.45,-42.06L10.07,-44.58L9.32,-46.53L8.80,-47.30L8.16,-47.94L6.47,-48.88L4.23,-49.34L2.90,-49.40L2.90,-51.50L3.96,-51.41L6.05,-51.28L8.09,-51.21L9.10,-51.20L10.34,-51.21L12.68,-51.33L14.85,-51.55L16.84,-51.89L18.66,-52.33L19.50,-52.60L19.50,-40.10L19.88,-41.09L20.77,-43.00L21.84,-44.83L23.07,-46.56L24.48,-48.21L25.25,-49.00L26.05,-49.74L27.70,-50.99L29.41,-51.93L31.20,-52.55L33.05,-52.86Z   " class=""></path></g><g transform="translate(637.785,0)" fill="#000000" stroke="#000000" stroke-width="0"><path d="M14.30,-76.50L15.56,-76.38L17.81,-75.43L18.80,-74.60L19.63,-73.61L20.58,-71.36L20.70,-70.10L20.58,-68.84L19.63,-66.59L18.80,-65.60L17.81,-64.77L15.56,-63.82L14.30,-63.70L13.04,-63.82L10.79,-64.77L9.80,-65.60L8.97,-66.59L8.02,-68.84L7.90,-70.10L8.02,-71.36L8.97,-73.61L9.80,-74.60L10.79,-75.43L13.04,-76.38Z   " class=""></path><path d="M19.50,-52.60L19.50,-9.30L19.55,-8.00L19.93,-5.84L20.68,-4.24L21.20,-3.65L21.84,-3.18L23.52,-2.49L25.77,-2.14L27.10,-2.10L27.10,0.00L25.61,-0.06L22.89,-0.18L20.53,-0.26L18.51,-0.33L16.84,-0.38L15.53,-0.40L15.00,-0.40L14.47,-0.40L13.16,-0.38L11.49,-0.33L9.47,-0.26L7.11,-0.18L4.39,-0.06L2.90,0.00L2.90,-2.10L4.23,-2.14L6.47,-2.49L8.16,-3.18L8.80,-3.65L9.32,-4.24L10.07,-5.84L10.45,-8.00L10.50,-9.30L10.50,-40.60L10.45,-42.06L10.07,-44.58L9.32,-46.53L8.80,-47.30L8.16,-47.94L6.47,-48.88L4.23,-49.34L2.90,-49.40L2.90,-51.50L3.96,-51.41L6.05,-51.28L8.09,-51.21L9.10,-51.20L10.34,-51.21L12.68,-51.33L14.85,-51.55L16.84,-51.89L18.66,-52.33Z   " class=""></path></g><g transform="translate(665.805,0)" fill="#000000" stroke="#000000" stroke-width="0"><path d="M27.60,-78.20L28.62,-78.17L30.57,-77.96L32.38,-77.53L34.05,-76.88L35.58,-76.01L36.30,-75.50L37.25,-74.63L38.63,-72.70L39.31,-70.50L39.40,-69.30L39.31,-68.20L38.56,-66.30L37.90,-65.50L37.10,-64.84L35.20,-64.09L34.10,-64.00L32.99,-64.09L31.04,-64.82L30.20,-65.45L29.50,-66.24L28.70,-68.22L28.60,-69.40L28.67,-70.40L29.25,-72.10L29.75,-72.80L30.37,-73.39L31.90,-74.24L32.80,-74.50L32.25,-75.40L31.20,-76.10L30.51,-76.36L28.86,-76.66L27.90,-76.70L26.83,-76.64L24.88,-76.14L24.00,-75.70L23.20,-75.16L21.90,-73.81L21.40,-73.00L21.05,-72.28L20.49,-70.53L20.09,-68.35L19.95,-67.10L19.90,-66.52L19.82,-65.19L19.74,-63.64L19.69,-61.88L19.64,-59.90L19.62,-57.70L19.60,-55.29L19.60,-54.00L19.60,-51.40L30.30,-51.40L30.30,-49.40L19.60,-49.40L19.60,-10.30L19.67,-8.84L20.26,-6.40L21.44,-4.58L22.25,-3.90L22.95,-3.48L24.61,-2.80L26.60,-2.35L28.92,-2.13L30.20,-2.10L30.20,0.00L27.80,-0.10L26.38,-0.14L23.77,-0.21L21.46,-0.28L19.45,-0.32L17.74,-0.36L16.34,-0.39L15.24,-0.40L14.80,-0.40L14.32,-0.40L13.09,-0.38L11.49,-0.33L9.52,-0.26L7.19,-0.18L4.49,-0.06L3.00,0.00L3.00,-2.10L4.33,-2.14L6.57,-2.49L8.26,-3.18L8.90,-3.65L9.42,-4.24L10.18,-5.84L10.55,-8.00L10.60,-9.30L10.60,-49.40L2.60,-49.40L2.60,-51.40L10.60,-51.40L10.61,-52.64L10.65,-54.99L10.74,-57.18L10.87,-59.20L11.05,-61.06L11.28,-62.76L11.55,-64.29L11.70,-65.00L11.94,-65.95L12.52,-67.75L13.25,-69.45L14.12,-71.03L15.14,-72.51L15.70,-73.20L16.40,-73.94L17.97,-75.26L19.80,-76.37L20.80,-76.85L21.85,-77.26L24.05,-77.86L26.38,-78.16Z   " class=""></path></g><g transform="translate(700.425,0)" fill="#000000" stroke="#000000" stroke-width="0"><path d="M41.80,-51.20L42.88,-51.20L44.93,-51.24L46.83,-51.32L48.58,-51.43L49.40,-51.50L49.40,-49.50L48.43,-49.31L46.65,-48.41L45.85,-47.70L45.34,-47.11L44.34,-45.60L43.37,-43.64L42.90,-42.50L26.50,0.50L23.10,9.20L22.62,10.38L21.60,12.48L20.53,14.23L19.39,15.63L18.80,16.20L18.01,16.85L16.21,17.85L15.20,18.20L14.15,18.46L12.05,18.76L11.00,18.80L10.03,18.76L8.28,18.40L6.76,17.69L6.10,17.20L5.27,16.32L4.32,14.13L4.20,12.80L4.29,11.66L4.99,9.73L5.60,8.95L6.37,8.32L8.32,7.59L9.50,7.50L10.55,7.58L12.38,8.20L13.15,8.75L13.78,9.43L14.51,11.16L14.60,12.20L14.53,13.16L13.92,14.82L12.73,16.16L11.90,16.70L12.50,16.80L13.40,16.75L15.09,16.31L16.65,15.45L18.07,14.15L19.34,12.41L20.48,10.25L21.00,9.00L24.50,-0.10L6.40,-43.80L5.83,-44.87L4.70,-46.63L3.57,-47.87L3.00,-48.30L2.15,-48.78L0.45,-49.33L-0.40,-49.40L-0.40,-51.50L0.47,-51.39L2.29,-51.19L4.20,-51.05L6.21,-50.95L8.31,-50.91L9.40,-50.90L10.13,-50.90L11.68,-50.93L13.35,-50.98L15.15,-51.05L17.07,-51.15L19.11,-51.27L21.27,-51.42L22.40,-51.50L22.40,-49.40L21.25,-49.38L19.29,-49.25L17.75,-48.98L17.15,-48.80L16.43,-48.39L15.60,-46.94L15.50,-45.90L15.53,-45.18L15.80,-43.63L16.33,-41.91L16.70,-41.00L28.70,-11.20L39.80,-40.10L40.28,-41.51L40.83,-43.81L40.90,-44.70L40.79,-45.78L39.89,-47.48L39.10,-48.10L38.44,-48.44L36.77,-49.00L34.64,-49.38L33.40,-49.50L33.40,-51.50L34.69,-51.43L37.07,-51.32L39.17,-51.24L40.99,-51.20Z   " class=""></path></g><g transform="translate(746.179,0)" fill="#000000" stroke="#000000" stroke-width="0"><path d="M37.60,-72.20L38.76,-72.18L40.95,-72.05L42.97,-71.79L44.83,-71.39L46.52,-70.86L47.30,-70.55L48.07,-70.20L49.64,-69.42L51.27,-68.51L52.96,-67.48L54.71,-66.32L55.60,-65.70L56.75,-64.95L57.60,-64.70L58.20,-64.87L59.17,-66.23L59.86,-68.94L60.10,-70.80L62.40,-70.80L62.37,-70.24L62.31,-69.02L62.25,-67.66L62.20,-66.16L62.16,-64.52L62.12,-62.74L62.08,-60.82L62.06,-58.77L62.03,-56.57L62.02,-54.24L62.01,-51.77L62.00,-49.16L62.00,-47.80L59.70,-47.80L59.47,-49.10L59.01,-51.51L58.54,-53.70L58.05,-55.66L57.80,-56.55L57.44,-57.68L56.52,-59.79L55.37,-61.71L54.70,-62.60L54.10,-63.31L52.80,-64.63L51.36,-65.83L49.78,-66.91L48.06,-67.86L47.15,-68.30L46.22,-68.70L44.32,-69.37L42.39,-69.88L40.42,-70.21L38.42,-70.38L37.40,-70.40L36.31,-70.37L34.20,-70.13L32.18,-69.65L30.24,-68.94L28.40,-67.98L26.64,-66.79L25.80,-66.10L25.10,-65.47L23.76,-64.09L22.52,-62.56L21.37,-60.89L20.32,-59.06L19.36,-57.09L18.50,-54.97L18.10,-53.85L17.81,-52.96L17.28,-51.13L16.81,-49.23L16.41,-47.27L16.08,-45.24L15.81,-43.14L15.61,-40.98L15.48,-38.76L15.41,-36.47L15.40,-35.30L15.41,-33.93L15.48,-31.27L15.61,-28.73L15.82,-26.31L16.09,-23.99L16.43,-21.80L16.84,-19.71L17.31,-17.74L17.86,-15.89L18.47,-14.15L19.15,-12.52L19.90,-11.01L20.72,-9.61L21.15,-8.95L21.74,-8.14L23.02,-6.63L24.43,-5.30L25.98,-4.13L27.65,-3.13L29.46,-2.29L31.39,-1.62L33.46,-1.12L35.66,-0.79L37.99,-0.62L39.20,-0.60L40.38,-0.63L42.66,-0.88L44.80,-1.38L46.82,-2.12L48.70,-3.11L49.60,-3.70L50.42,-4.30L51.60,-5.47L51.95,-6.05L52.19,-6.68L52.47,-8.25L52.50,-9.20L52.50,-18.80L52.48,-20.14L52.30,-22.42L51.94,-24.20L51.70,-24.90L51.23,-25.77L49.82,-27.08L48.90,-27.50L48.16,-27.72L46.27,-28.08L43.83,-28.32L42.40,-28.40L42.40,-30.40L43.16,-30.36L44.80,-30.29L46.59,-30.22L48.52,-30.17L50.61,-30.14L52.86,-30.11L55.25,-30.10L56.50,-30.10L57.83,-30.10L60.29,-30.13L62.50,-30.18L64.45,-30.25L66.15,-30.34L66.90,-30.40L66.90,-28.40L65.83,-28.27L64.15,-27.88L63.55,-27.60L62.68,-26.72L62.15,-25.30L62.04,-24.68L61.89,-23.07L61.81,-21.01L61.80,-19.80L61.80,0.00L59.80,0.00L59.71,-0.99L59.31,-2.92L59.00,-3.85L58.17,-5.24L57.10,-5.70L56.50,-5.63L55.90,-5.40L55.08,-4.90L53.80,-4.00L52.92,-3.35L51.14,-2.16L49.33,-1.15L47.48,-0.31L46.55,0.05L45.60,0.37L43.62,0.87L41.53,1.21L39.34,1.38L38.20,1.40L37.06,1.39L34.85,1.28L32.71,1.07L30.64,0.76L28.64,0.34L26.71,-0.19L24.86,-0.82L23.08,-1.55L21.38,-2.39L20.55,-2.85L19.64,-3.40L17.92,-4.58L16.29,-5.87L14.78,-7.29L13.37,-8.82L12.07,-10.47L10.88,-12.23L9.80,-14.11L9.30,-15.10L8.92,-15.91L8.22,-17.57L7.59,-19.29L7.05,-21.08L6.58,-22.93L6.19,-24.84L5.88,-26.81L5.64,-28.84L5.49,-30.94L5.41,-33.10L5.40,-34.20L5.41,-35.33L5.49,-37.56L5.66,-39.73L5.91,-41.84L6.24,-43.90L6.66,-45.91L7.15,-47.86L7.73,-49.75L8.40,-51.59L9.15,-53.38L9.55,-54.25L10.02,-55.20L11.02,-57.02L12.10,-58.75L13.25,-60.37L14.49,-61.90L15.80,-63.33L17.19,-64.66L18.65,-65.89L20.20,-67.02L21.00,-67.55L21.82,-68.05L23.49,-68.97L25.21,-69.77L26.98,-70.46L28.80,-71.04L30.67,-71.50L32.59,-71.84L34.56,-72.07L36.57,-72.19Z   " class=""></path></g><g transform="translate(810.504,0)" fill="#000000" stroke="#000000" stroke-width="0"><path d="M48.30,-52.60L48.30,-10.80L48.35,-9.34L48.72,-6.83L49.48,-4.87L50.00,-4.10L50.64,-3.46L52.33,-2.52L54.57,-2.06L55.90,-2.00L55.90,0.10L54.87,0.01L52.80,-0.13L50.73,-0.19L49.70,-0.20L48.46,-0.19L46.12,-0.07L43.95,0.15L41.96,0.49L40.14,0.93L39.30,1.20L39.30,-10.60L38.89,-9.59L37.97,-7.71L36.95,-6.01L35.82,-4.49L34.57,-3.16L33.22,-2.01L32.50,-1.50L31.61,-0.95L29.79,-0.02L27.90,0.67L25.95,1.14L23.93,1.37L22.90,1.40L21.79,1.37L19.70,1.16L17.79,0.74L16.06,0.11L14.50,-0.74L13.12,-1.79L12.50,-2.40L11.93,-3.10L10.96,-4.68L10.23,-6.50L9.95,-7.50L9.77,-8.30L9.49,-10.08L9.31,-12.08L9.21,-14.30L9.20,-15.50L9.20,-40.60L9.15,-42.06L8.77,-44.58L8.02,-46.53L7.50,-47.30L6.86,-47.94L5.18,-48.88L2.93,-49.34L1.60,-49.40L1.60,-51.50L2.63,-51.41L4.70,-51.28L6.77,-51.21L7.80,-51.20L9.04,-51.21L11.38,-51.33L13.55,-51.55L15.54,-51.89L17.36,-52.33L18.20,-52.60L18.20,-13.30L18.21,-12.07L18.31,-9.86L18.51,-7.97L18.65,-7.15L18.95,-6.03L20.00,-4.10L20.75,-3.30L21.35,-2.84L22.84,-2.18L24.72,-1.84L25.80,-1.80L26.74,-1.84L28.55,-2.14L30.28,-2.74L31.91,-3.64L32.70,-4.20L33.45,-4.83L34.84,-6.25L36.05,-7.88L37.09,-9.74L37.55,-10.75L37.88,-11.59L38.44,-13.32L38.86,-15.11L39.14,-16.98L39.28,-18.91L39.30,-19.90L39.30,-40.60L39.25,-42.06L38.88,-44.58L38.12,-46.53L37.60,-47.30L36.96,-47.94L35.27,-48.88L33.03,-49.34L31.70,-49.40L31.70,-51.50L32.73,-51.41L34.80,-51.28L36.87,-51.21L37.90,-51.20L39.14,-51.21L41.48,-51.33L43.65,-51.55L45.64,-51.89L47.46,-52.33Z   " class=""></path></g><g transform="translate(863.612,0)" fill="#000000" stroke="#000000" stroke-width="0"><path d="M16.30,0.70L15.07,0.67L12.81,0.42L10.81,-0.09L9.07,-0.84L7.59,-1.85L6.95,-2.45L6.37,-3.10L5.39,-4.56L4.66,-6.21L4.17,-8.06L3.93,-10.10L3.90,-11.20L3.94,-12.30L4.24,-14.35L4.86,-16.20L5.78,-17.85L6.35,-18.60L6.98,-19.31L8.31,-20.61L9.76,-21.76L11.33,-22.76L12.15,-23.20L12.84,-23.54L14.35,-24.24L16.04,-24.95L17.89,-25.68L19.92,-26.42L21.00,-26.80L22.09,-27.18L24.10,-27.91L25.88,-28.63L27.42,-29.31L28.73,-29.98L29.30,-30.30L30.13,-30.86L31.32,-32.17L31.93,-33.73L32.00,-34.60L32.00,-40.80L31.96,-42.19L31.66,-44.64L31.04,-46.62L30.12,-48.16L29.55,-48.75L28.91,-49.25L27.44,-50.06L25.73,-50.60L23.77,-50.87L22.70,-50.90L21.34,-50.86L18.87,-50.58L16.72,-50.00L14.91,-49.14L13.42,-47.98L12.80,-47.30L13.76,-46.98L15.43,-45.93L16.15,-45.20L16.74,-44.35L17.42,-42.35L17.50,-41.20L17.40,-40.02L16.60,-38.04L15.90,-37.25L15.04,-36.62L12.99,-35.89L11.80,-35.80L10.49,-35.91L8.39,-36.78L7.60,-37.55L6.99,-38.47L6.29,-40.60L6.20,-41.80L6.27,-42.95L6.85,-44.95L7.35,-45.80L8.00,-46.60L9.72,-48.20L10.80,-49.00L11.64,-49.55L13.53,-50.55L15.70,-51.42L16.90,-51.80L17.84,-52.06L19.77,-52.47L21.80,-52.75L23.91,-52.88L25.00,-52.90L26.27,-52.87L28.66,-52.67L30.84,-52.26L32.81,-51.64L34.56,-50.82L36.11,-49.79L36.80,-49.20L37.59,-48.41L38.89,-46.66L39.82,-44.71L40.15,-43.65L40.35,-42.81L40.67,-40.92L40.88,-38.79L40.99,-36.39L41.00,-35.10L41.00,-7.30L41.04,-6.14L41.39,-4.34L41.70,-3.70L42.65,-2.88L44.10,-2.60L45.26,-2.74L46.35,-3.15L47.44,-3.81L48.60,-4.70L49.70,-3.00L48.85,-2.37L47.29,-1.29L45.89,-0.47L45.25,-0.15L44.27,0.22L41.94,0.65L40.60,0.70L39.45,0.66L37.41,0.36L35.73,-0.24L34.42,-1.14L33.90,-1.70L33.32,-2.55L32.48,-4.52L32.05,-6.88L32.00,-8.20L31.39,-7.23L30.12,-5.47L28.77,-3.96L27.36,-2.69L25.87,-1.67L25.10,-1.25L24.31,-0.88L22.67,-0.26L20.95,0.21L19.15,0.52L17.27,0.68Z   M20.70,-3.30L21.63,-3.34L23.44,-3.65L25.17,-4.27L26.82,-5.20L28.40,-6.44L29.90,-7.99L31.32,-9.85L32.00,-10.90L32.00,-30.50L31.51,-29.83L30.26,-28.68L29.50,-28.20L28.92,-27.88L27.48,-27.15L25.65,-26.28L24.60,-25.80L23.37,-25.27L21.16,-24.24L19.27,-23.24L18.45,-22.75L17.68,-22.24L16.26,-21.04L14.98,-19.60L14.40,-18.80L13.88,-17.93L13.13,-15.95L12.75,-13.66L12.70,-12.40L12.73,-11.31L13.01,-9.33L13.56,-7.63L14.38,-6.21L14.90,-5.60L15.67,-4.90L17.45,-3.88L19.54,-3.36Z   " class=""></path></g><g transform="translate(913.667,0)" fill="#000000" stroke="#000000" stroke-width="0"><path d="M34.00,-52.90L35.29,-52.84L37.64,-52.32L39.66,-51.30L40.55,-50.60L41.33,-49.81L42.46,-48.05L43.03,-46.07L43.10,-45.00L43.00,-43.75L42.23,-41.52L41.55,-40.55L40.71,-39.74L38.63,-38.82L37.40,-38.70L36.34,-38.79L34.47,-39.49L33.65,-40.10L32.97,-40.86L32.20,-42.76L32.10,-43.90L32.19,-44.97L32.95,-46.90L34.46,-48.57L35.50,-49.30L34.63,-50.05L33.40,-50.30L32.44,-50.25L30.57,-49.87L28.80,-49.11L27.11,-47.96L26.30,-47.25L25.52,-46.47L24.10,-44.77L22.85,-42.91L21.77,-40.88L21.30,-39.80L20.88,-38.71L20.20,-36.57L19.75,-34.50L19.53,-32.48L19.50,-31.50L19.50,-10.30L19.57,-8.84L20.16,-6.40L21.34,-4.58L22.15,-3.90L22.85,-3.48L24.51,-2.80L26.50,-2.35L28.82,-2.13L30.10,-2.10L30.10,0.00L27.70,-0.10L26.28,-0.14L23.67,-0.21L21.36,-0.28L19.35,-0.32L17.64,-0.36L16.24,-0.39L15.14,-0.40L14.70,-0.40L14.22,-0.40L12.99,-0.38L11.39,-0.33L9.42,-0.26L7.09,-0.18L4.39,-0.06L2.90,0.00L2.90,-2.10L4.23,-2.14L6.47,-2.49L8.16,-3.18L8.80,-3.65L9.32,-4.24L10.07,-5.84L10.45,-8.00L10.50,-9.30L10.50,-40.60L10.45,-42.06L10.07,-44.58L9.32,-46.53L8.80,-47.30L8.16,-47.94L6.47,-48.88L4.23,-49.34L2.90,-49.40L2.90,-51.50L3.96,-51.41L6.05,-51.28L8.09,-51.21L9.10,-51.20L10.34,-51.21L12.68,-51.33L14.85,-51.55L16.84,-51.89L18.66,-52.33L19.50,-52.60L19.50,-40.10L19.88,-41.09L20.77,-43.00L21.84,-44.83L23.07,-46.56L24.48,-48.21L25.25,-49.00L26.05,-49.74L27.70,-50.99L29.41,-51.93L31.20,-52.55L33.05,-52.86Z   " class=""></path></g><g transform="translate(951.910,0)" fill="#000000" stroke="#000000" stroke-width="0"><path d="M48.40,-10.90L48.45,-9.44L48.82,-6.92L49.58,-4.97L50.10,-4.20L50.74,-3.56L52.42,-2.63L54.67,-2.16L56.00,-2.10L56.00,0.00L54.97,-0.09L52.90,-0.22L50.83,-0.29L49.80,-0.30L48.56,-0.29L46.22,-0.17L44.05,0.05L42.06,0.39L40.24,0.83L39.40,1.10L39.40,-7.80L38.92,-6.71L37.80,-4.73L36.45,-3.01L34.87,-1.57L34.00,-0.95L33.26,-0.50L31.70,0.25L30.00,0.81L28.18,1.19L26.22,1.38L25.20,1.40L24.02,1.37L21.75,1.16L19.61,0.73L17.59,0.08L15.71,-0.78L13.96,-1.86L12.34,-3.16L10.85,-4.66L10.15,-5.50L9.62,-6.21L8.64,-7.71L7.77,-9.35L7.01,-11.11L6.37,-13.01L5.83,-15.03L5.41,-17.17L5.10,-19.45L4.89,-21.85L4.80,-24.39L4.80,-25.70L4.81,-26.78L4.91,-28.87L5.10,-30.89L5.38,-32.82L5.77,-34.68L6.24,-36.46L6.81,-38.15L7.48,-39.77L7.85,-40.55L8.37,-41.55L9.51,-43.43L10.76,-45.15L12.12,-46.69L13.61,-48.06L15.21,-49.26L16.05,-49.80L16.92,-50.30L18.69,-51.16L20.52,-51.85L22.42,-52.36L24.37,-52.71L26.37,-52.88L27.40,-52.90L28.34,-52.88L30.16,-52.70L31.90,-52.33L33.55,-51.79L34.35,-51.45L35.37,-50.92L37.19,-49.61L38.73,-47.96L39.40,-47.00L39.40,-66.40L39.35,-67.86L38.97,-70.38L38.22,-72.33L37.70,-73.10L37.06,-73.74L35.38,-74.67L33.13,-75.14L31.80,-75.20L31.80,-77.30L32.86,-77.21L34.95,-77.08L36.99,-77.01L38.00,-77.00L39.24,-77.01L41.58,-77.13L43.75,-77.35L45.74,-77.69L47.56,-78.13L48.40,-78.40Z   M28.10,-1.60L29.06,-1.65L30.91,-2.02L32.66,-2.77L34.31,-3.90L35.10,-4.60L35.70,-5.23L36.79,-6.63L37.73,-8.22L38.51,-10.03L39.14,-12.03L39.40,-13.10L39.40,-42.90L38.98,-43.96L37.98,-45.85L36.73,-47.42L35.25,-48.67L33.53,-49.62L31.58,-50.25L29.38,-50.56L28.20,-50.60L27.18,-50.56L25.25,-50.20L23.45,-49.50L21.78,-48.44L20.25,-47.03L18.85,-45.26L18.20,-44.25L17.79,-43.53L17.04,-41.97L16.39,-40.27L15.83,-38.43L15.38,-36.44L15.01,-34.30L14.75,-32.03L14.58,-29.60L14.50,-27.04L14.50,-25.70L14.50,-24.39L14.57,-21.87L14.72,-19.49L14.97,-17.27L15.30,-15.19L15.72,-13.26L16.23,-11.47L16.83,-9.83L17.52,-8.34L17.90,-7.65L18.51,-6.68L19.85,-5.00L21.37,-3.66L23.07,-2.65L24.95,-1.98L27.01,-1.64Z   " class=""></path></g></g><g></g></g></g></g></svg>